<svg xmlns="http://www.w3.org/2000/svg" xmlns:xlink="http://www.w3.org/1999/xlink" width="141" zoomAndPan="magnify" viewBox="0 0 105.75 30.000001" height="40" preserveAspectRatio="xMidYMid meet" version="1.0"><defs><g/><clipPath id="87b0117a43"><path d="M 11.472656 1.441406 L 61.554688 1.441406 L 61.554688 10.875 L 11.472656 10.875 Z M 11.472656 1.441406 " clip-rule="nonzero"/></clipPath><clipPath id="8171df9bc4"><path d="M 61.550781 17.351562 L 61.550781 12 L 57.015625 9.375 L 57.015625 4.128906 L 52.386719 1.453125 L 47.851562 4.074219 L 43.3125 1.453125 L 38.777344 4.074219 L 34.242188 1.453125 L 29.707031 4.074219 L 25.171875 1.453125 L 20.636719 4.074219 L 16.101562 1.453125 L 11.472656 4.128906 L 11.472656 9.484375 L 16.007812 12.105469 L 16.007812 17.246094 L 11.472656 19.867188 L 11.472656 25.222656 L 16.007812 27.847656 L 16.007812 32.984375 L 11.472656 35.609375 L 11.472656 40.960938 L 16.007812 43.585938 L 16.007812 48.832031 L 20.589844 51.484375 L 20.636719 51.507812 L 25.171875 48.886719 L 29.660156 51.484375 L 29.707031 51.507812 L 34.242188 48.886719 L 38.730469 51.484375 L 38.777344 51.507812 L 43.3125 48.886719 L 47.804688 51.484375 L 47.847656 51.507812 L 52.386719 48.886719 L 56.875 51.484375 L 56.921875 51.507812 L 61.550781 48.832031 L 61.550781 43.476562 L 57.015625 40.855469 L 57.015625 35.714844 L 61.550781 33.09375 L 61.550781 27.738281 L 57.015625 25.113281 L 57.015625 19.976562 Z M 56.921875 46.046875 L 52.574219 43.53125 L 56.921875 41.015625 L 61.269531 43.53125 Z M 56.828125 35.5 L 52.480469 32.984375 L 52.480469 27.953125 L 56.828125 30.46875 Z M 16.195312 38.339844 L 20.542969 35.824219 L 20.542969 40.855469 L 16.195312 43.371094 Z M 16.195312 22.601562 L 20.542969 20.085938 L 20.542969 25.117188 L 16.195312 27.632812 Z M 56.828125 19.761719 L 52.480469 17.246094 L 52.480469 12.214844 L 56.828125 14.730469 Z M 52.292969 27.632812 L 47.941406 25.117188 L 47.941406 20.085938 L 52.292969 22.601562 Z M 20.730469 14.730469 L 25.078125 12.214844 L 25.078125 17.246094 L 20.730469 19.761719 Z M 52.292969 43.371094 L 47.941406 40.855469 L 47.941406 35.824219 L 52.292969 38.339844 Z M 20.730469 30.46875 L 25.078125 27.953125 L 25.078125 32.984375 L 20.730469 35.5 Z M 52.292969 12.214844 L 52.292969 17.246094 L 47.941406 19.761719 L 47.941406 14.730469 Z M 25.265625 22.601562 L 29.613281 20.085938 L 29.613281 25.117188 L 25.265625 27.632812 Z M 43.222656 27.632812 L 38.871094 25.117188 L 38.871094 20.085938 L 43.222656 22.601562 Z M 47.757812 35.5 L 43.40625 32.984375 L 43.40625 27.953125 L 47.757812 30.46875 Z M 29.707031 30.308594 L 25.359375 27.792969 L 29.707031 25.277344 L 34.054688 27.792969 Z M 34.335938 27.632812 L 34.335938 22.601562 L 38.683594 20.085938 L 38.683594 25.117188 Z M 34.242188 22.4375 L 29.894531 19.921875 L 34.242188 17.40625 L 38.59375 19.921875 Z M 34.148438 22.601562 L 34.148438 27.632812 L 29.800781 25.117188 L 29.800781 20.085938 Z M 38.683594 35.5 L 34.335938 32.984375 L 34.335938 27.953125 L 38.683594 30.46875 Z M 38.777344 30.308594 L 34.429688 27.792969 L 38.777344 25.277344 L 43.128906 27.792969 Z M 29.613281 30.46875 L 29.613281 35.5 L 25.265625 32.984375 L 25.265625 27.953125 Z M 29.800781 35.5 L 29.800781 30.46875 L 34.148438 27.953125 L 34.148438 32.984375 Z M 38.871094 35.5 L 38.871094 30.46875 L 43.222656 27.953125 L 43.222656 32.984375 Z M 47.851562 30.308594 L 43.5 27.792969 L 47.851562 25.277344 L 52.199219 27.792969 Z M 47.941406 35.5 L 47.941406 30.46875 L 52.292969 27.953125 L 52.292969 32.984375 Z M 43.3125 22.4375 L 38.964844 19.921875 L 43.3125 17.40625 L 47.664062 19.921875 Z M 47.757812 19.761719 L 43.40625 17.246094 L 43.40625 12.214844 L 47.757812 14.730469 Z M 43.222656 17.246094 L 38.871094 19.761719 L 38.871094 14.730469 L 43.222656 12.214844 Z M 38.683594 19.761719 L 34.335938 17.246094 L 34.335938 12.214844 L 38.683594 14.730469 Z M 34.148438 17.246094 L 29.800781 19.761719 L 29.800781 14.730469 L 34.148438 12.214844 Z M 29.613281 19.761719 L 25.265625 17.246094 L 25.265625 12.214844 L 29.613281 14.730469 Z M 29.519531 19.921875 L 25.171875 22.4375 L 20.824219 19.921875 L 25.171875 17.40625 Z M 25.078125 43.371094 L 20.730469 40.855469 L 20.730469 35.824219 L 25.078125 38.339844 Z M 25.171875 38.175781 L 20.824219 35.664062 L 25.171875 33.148438 L 29.519531 35.664062 Z M 34.148438 43.371094 L 29.800781 40.855469 L 29.800781 35.824219 L 34.148438 38.339844 Z M 34.242188 38.175781 L 29.894531 35.664062 L 34.242188 33.148438 L 38.589844 35.664062 Z M 43.222656 43.371094 L 38.871094 40.855469 L 38.871094 35.824219 L 43.222656 38.339844 Z M 43.3125 38.175781 L 38.964844 35.664062 L 43.3125 33.148438 L 47.664062 35.664062 Z M 47.757812 25.117188 L 43.40625 27.632812 L 43.40625 22.601562 L 47.757812 20.085938 Z M 52.199219 12.054688 L 47.851562 14.566406 L 43.5 12.054688 L 47.851562 9.539062 Z M 43.128906 12.054688 L 38.777344 14.566406 L 34.429688 12.054688 L 38.777344 9.539062 Z M 34.054688 12.054688 L 29.707031 14.566406 L 25.359375 12.054688 L 29.707031 9.539062 Z M 25.078125 22.601562 L 25.078125 27.632812 L 20.730469 25.117188 L 20.730469 20.085938 Z M 20.636719 25.277344 L 24.984375 27.792969 L 20.636719 30.308594 L 16.289062 27.792969 Z M 25.265625 43.371094 L 25.265625 38.339844 L 29.613281 35.824219 L 29.613281 40.855469 Z M 34.335938 43.371094 L 34.335938 38.339844 L 38.683594 35.824219 L 38.683594 40.855469 Z M 43.40625 43.371094 L 43.40625 38.339844 L 47.757812 35.824219 L 47.757812 40.855469 Z M 52.386719 38.175781 L 48.035156 35.664062 L 52.386719 33.148438 L 56.734375 35.664062 Z M 20.636719 9.539062 L 24.984375 12.054688 L 20.636719 14.566406 L 16.289062 12.054688 Z M 20.542969 30.46875 L 20.542969 35.5 L 16.195312 32.984375 L 16.195312 27.953125 Z M 52.480469 43.371094 L 52.480469 38.339844 L 56.828125 35.824219 L 56.828125 40.855469 Z M 52.386719 22.4375 L 48.035156 19.921875 L 52.386719 17.40625 L 56.734375 19.921875 Z M 56.921875 14.566406 L 52.574219 12.054688 L 56.921875 9.539062 L 61.269531 12.050781 Z M 52.480469 11.890625 L 52.480469 6.859375 L 56.828125 4.34375 L 56.828125 9.375 Z M 52.292969 11.890625 L 47.941406 9.375 L 47.941406 4.34375 L 52.292969 6.859375 Z M 47.757812 9.375 L 43.40625 11.890625 L 43.40625 6.859375 L 47.757812 4.34375 Z M 43.222656 11.890625 L 38.871094 9.375 L 38.871094 4.34375 L 43.222656 6.859375 Z M 38.683594 9.375 L 34.335938 11.890625 L 34.335938 6.859375 L 38.683594 4.34375 Z M 34.148438 11.890625 L 29.800781 9.375 L 29.800781 4.34375 L 34.148438 6.859375 Z M 29.613281 9.375 L 25.265625 11.890625 L 25.265625 6.859375 L 29.613281 4.34375 Z M 25.078125 11.890625 L 20.730469 9.375 L 20.730469 4.34375 L 25.078125 6.859375 Z M 20.542969 9.375 L 16.195312 11.890625 L 16.195312 6.859375 L 20.542969 4.34375 Z M 16.195312 12.214844 L 20.542969 14.730469 L 20.542969 19.761719 L 16.195312 17.246094 Z M 20.449219 19.921875 L 16.101562 22.4375 L 11.753906 19.921875 L 16.101562 17.40625 Z M 20.449219 35.664062 L 16.101562 38.175781 L 11.753906 35.660156 L 16.101562 33.148438 Z M 20.636719 41.015625 L 24.984375 43.53125 L 20.636719 46.046875 L 16.289062 43.53125 Z M 20.730469 46.207031 L 25.078125 43.695312 L 25.078125 48.722656 L 20.730469 51.238281 Z M 29.707031 41.015625 L 34.054688 43.53125 L 29.707031 46.046875 L 25.359375 43.53125 Z M 29.800781 46.207031 L 34.148438 43.695312 L 34.148438 48.722656 L 29.800781 51.238281 Z M 38.777344 41.015625 L 43.128906 43.53125 L 38.777344 46.046875 L 34.429688 43.53125 Z M 38.871094 46.207031 L 43.222656 43.695312 L 43.222656 48.722656 L 38.871094 51.238281 Z M 47.851562 41.015625 L 52.199219 43.53125 L 47.851562 46.046875 L 43.5 43.53125 Z M 47.941406 46.207031 L 52.292969 43.695312 L 52.292969 48.722656 L 47.941406 51.238281 Z M 56.921875 30.308594 L 52.574219 27.792969 L 56.921875 25.277344 L 61.269531 27.792969 Z M 52.480469 27.628906 L 52.480469 22.601562 L 56.828125 20.085938 L 56.828125 25.113281 Z M 57.015625 19.761719 L 57.015625 14.730469 L 61.363281 12.214844 L 61.363281 17.246094 Z M 56.734375 4.183594 L 52.386719 6.699219 L 48.035156 4.183594 L 52.386719 1.667969 Z M 47.664062 4.183594 L 43.3125 6.699219 L 38.964844 4.183594 L 43.3125 1.667969 Z M 38.59375 4.183594 L 34.242188 6.699219 L 29.894531 4.183594 L 34.242188 1.667969 Z M 29.519531 4.183594 L 25.171875 6.699219 L 20.824219 4.183594 L 25.171875 1.667969 Z M 20.449219 4.183594 L 16.101562 6.699219 L 11.753906 4.183594 L 16.101562 1.667969 Z M 11.660156 4.34375 L 16.007812 6.859375 L 16.007812 11.890625 L 11.660156 9.375 Z M 11.660156 20.085938 L 16.007812 22.601562 L 16.007812 27.632812 L 11.660156 25.117188 Z M 11.660156 35.824219 L 16.007812 38.339844 L 16.007812 43.371094 L 11.660156 40.855469 Z M 16.195312 43.695312 L 20.542969 46.207031 L 20.542969 51.238281 L 16.195312 48.722656 Z M 25.265625 43.695312 L 29.613281 46.207031 L 29.613281 51.238281 L 25.265625 48.722656 Z M 34.335938 43.695312 L 38.683594 46.207031 L 38.683594 51.238281 L 34.335938 48.722656 Z M 43.40625 43.695312 L 47.757812 46.207031 L 47.757812 51.238281 L 43.40625 48.722656 Z M 52.480469 43.695312 L 56.828125 46.207031 L 56.828125 51.238281 L 52.480469 48.722656 Z M 57.015625 51.238281 L 57.015625 46.207031 L 61.363281 43.695312 L 61.363281 48.722656 Z M 57.015625 35.5 L 57.015625 30.46875 L 61.363281 27.953125 L 61.363281 32.984375 Z M 57.015625 35.5 " clip-rule="nonzero"/></clipPath><linearGradient x1="261.483" gradientTransform="matrix(0.0957565, 0, 0, 0.0959309, 11.472267, 1.451759)" y1="98.232433" x2="261.483" gradientUnits="userSpaceOnUse" y2="-0.0000191116" id="3948d75748"><stop stop-opacity="1" stop-color="rgb(83.106995%, 24.3927%, 41.955566%)" offset="0"/><stop stop-opacity="1" stop-color="rgb(83.177185%, 24.417114%, 41.856384%)" offset="0.015625"/><stop stop-opacity="1" stop-color="rgb(83.319092%, 24.465942%, 41.661072%)" offset="0.03125"/><stop stop-opacity="1" stop-color="rgb(83.460999%, 24.514771%, 41.464233%)" offset="0.046875"/><stop stop-opacity="1" stop-color="rgb(83.602905%, 24.562073%, 41.268921%)" offset="0.0625"/><stop stop-opacity="1" stop-color="rgb(83.744812%, 24.610901%, 41.072083%)" offset="0.078125"/><stop stop-opacity="1" stop-color="rgb(83.886719%, 24.659729%, 40.87677%)" offset="0.09375"/><stop stop-opacity="1" stop-color="rgb(84.030151%, 24.708557%, 40.679932%)" offset="0.109375"/><stop stop-opacity="1" stop-color="rgb(84.172058%, 24.757385%, 40.483093%)" offset="0.125"/><stop stop-opacity="1" stop-color="rgb(84.313965%, 24.806213%, 40.287781%)" offset="0.140625"/><stop stop-opacity="1" stop-color="rgb(84.455872%, 24.853516%, 40.090942%)" offset="0.15625"/><stop stop-opacity="1" stop-color="rgb(84.597778%, 24.902344%, 39.89563%)" offset="0.171875"/><stop stop-opacity="1" stop-color="rgb(84.739685%, 24.951172%, 39.698792%)" offset="0.1875"/><stop stop-opacity="1" stop-color="rgb(84.881592%, 25%, 39.503479%)" offset="0.203125"/><stop stop-opacity="1" stop-color="rgb(85.023499%, 25.048828%, 39.306641%)" offset="0.21875"/><stop stop-opacity="1" stop-color="rgb(85.165405%, 25.09613%, 39.109802%)" offset="0.234375"/><stop stop-opacity="1" stop-color="rgb(85.308838%, 25.144958%, 38.91449%)" offset="0.25"/><stop stop-opacity="1" stop-color="rgb(85.450745%, 25.193787%, 38.717651%)" offset="0.265625"/><stop stop-opacity="1" stop-color="rgb(85.592651%, 25.242615%, 38.522339%)" offset="0.28125"/><stop stop-opacity="1" stop-color="rgb(85.734558%, 25.291443%, 38.3255%)" offset="0.296875"/><stop stop-opacity="1" stop-color="rgb(85.876465%, 25.338745%, 38.130188%)" offset="0.3125"/><stop stop-opacity="1" stop-color="rgb(86.018372%, 25.387573%, 37.93335%)" offset="0.328125"/><stop stop-opacity="1" stop-color="rgb(86.160278%, 25.436401%, 37.736511%)" offset="0.34375"/><stop stop-opacity="1" stop-color="rgb(86.302185%, 25.485229%, 37.541199%)" offset="0.359375"/><stop stop-opacity="1" stop-color="rgb(86.444092%, 25.534058%, 37.34436%)" offset="0.375"/><stop stop-opacity="1" stop-color="rgb(86.585999%, 25.58136%, 37.149048%)" offset="0.390625"/><stop stop-opacity="1" stop-color="rgb(86.729431%, 25.630188%, 36.952209%)" offset="0.40625"/><stop stop-opacity="1" stop-color="rgb(86.871338%, 25.679016%, 36.755371%)" offset="0.421875"/><stop stop-opacity="1" stop-color="rgb(87.013245%, 25.727844%, 36.560059%)" offset="0.4375"/><stop stop-opacity="1" stop-color="rgb(87.155151%, 25.776672%, 36.36322%)" offset="0.453125"/><stop stop-opacity="1" stop-color="rgb(87.297058%, 25.823975%, 36.167908%)" offset="0.46875"/><stop stop-opacity="1" stop-color="rgb(87.438965%, 25.872803%, 35.971069%)" offset="0.484375"/><stop stop-opacity="1" stop-color="rgb(87.580872%, 25.921631%, 35.775757%)" offset="0.5"/><stop stop-opacity="1" stop-color="rgb(87.722778%, 25.970459%, 35.578918%)" offset="0.515625"/><stop stop-opacity="1" stop-color="rgb(87.864685%, 26.019287%, 35.38208%)" offset="0.53125"/><stop stop-opacity="1" stop-color="rgb(88.008118%, 26.066589%, 35.186768%)" offset="0.546875"/><stop stop-opacity="1" stop-color="rgb(88.150024%, 26.115417%, 34.989929%)" offset="0.5625"/><stop stop-opacity="1" stop-color="rgb(88.291931%, 26.164246%, 34.794617%)" offset="0.578125"/><stop stop-opacity="1" stop-color="rgb(88.433838%, 26.213074%, 34.597778%)" offset="0.59375"/><stop stop-opacity="1" stop-color="rgb(88.575745%, 26.261902%, 34.402466%)" offset="0.609375"/><stop stop-opacity="1" stop-color="rgb(88.717651%, 26.31073%, 34.205627%)" offset="0.625"/><stop stop-opacity="1" stop-color="rgb(88.859558%, 26.358032%, 34.008789%)" offset="0.640625"/><stop stop-opacity="1" stop-color="rgb(89.001465%, 26.40686%, 33.813477%)" offset="0.65625"/><stop stop-opacity="1" stop-color="rgb(89.143372%, 26.455688%, 33.616638%)" offset="0.671875"/><stop stop-opacity="1" stop-color="rgb(89.286804%, 26.504517%, 33.421326%)" offset="0.6875"/><stop stop-opacity="1" stop-color="rgb(89.428711%, 26.553345%, 33.224487%)" offset="0.703125"/><stop stop-opacity="1" stop-color="rgb(89.570618%, 26.600647%, 33.027649%)" offset="0.71875"/><stop stop-opacity="1" stop-color="rgb(89.712524%, 26.649475%, 32.832336%)" offset="0.734375"/><stop stop-opacity="1" stop-color="rgb(89.854431%, 26.698303%, 32.635498%)" offset="0.75"/><stop stop-opacity="1" stop-color="rgb(89.996338%, 26.747131%, 32.440186%)" offset="0.765625"/><stop stop-opacity="1" stop-color="rgb(90.138245%, 26.795959%, 32.243347%)" offset="0.78125"/><stop stop-opacity="1" stop-color="rgb(90.280151%, 26.843262%, 32.048035%)" offset="0.796875"/><stop stop-opacity="1" stop-color="rgb(90.422058%, 26.89209%, 31.851196%)" offset="0.8125"/><stop stop-opacity="1" stop-color="rgb(90.565491%, 26.940918%, 31.654358%)" offset="0.828125"/><stop stop-opacity="1" stop-color="rgb(90.707397%, 26.989746%, 31.459045%)" offset="0.84375"/><stop stop-opacity="1" stop-color="rgb(90.849304%, 27.038574%, 31.262207%)" offset="0.859375"/><stop stop-opacity="1" stop-color="rgb(90.991211%, 27.085876%, 31.066895%)" offset="0.875"/><stop stop-opacity="1" stop-color="rgb(91.133118%, 27.134705%, 30.870056%)" offset="0.890625"/><stop stop-opacity="1" stop-color="rgb(91.275024%, 27.183533%, 30.674744%)" offset="0.90625"/><stop stop-opacity="1" stop-color="rgb(91.416931%, 27.232361%, 30.477905%)" offset="0.921875"/><stop stop-opacity="1" stop-color="rgb(91.558838%, 27.281189%, 30.281067%)" offset="0.9375"/><stop stop-opacity="1" stop-color="rgb(91.700745%, 27.328491%, 30.085754%)" offset="0.953125"/><stop stop-opacity="1" stop-color="rgb(91.842651%, 27.377319%, 29.888916%)" offset="0.96875"/><stop stop-opacity="1" stop-color="rgb(91.986084%, 27.426147%, 29.693604%)" offset="0.984375"/><stop stop-opacity="1" stop-color="rgb(92.127991%, 27.474976%, 29.496765%)" offset="1"/></linearGradient><clipPath id="ae55b7ba6e"><path d="M 7.527344 16.691406 L 57.609375 16.691406 L 57.609375 26.128906 L 7.527344 26.128906 Z M 7.527344 16.691406 " clip-rule="nonzero"/></clipPath><clipPath id="dc651c6324"><path d="M 7.53125 10.214844 L 7.53125 15.570312 L 12.066406 18.191406 L 12.066406 23.4375 L 16.695312 26.117188 L 21.230469 23.492188 L 25.765625 26.117188 L 30.300781 23.492188 L 34.835938 26.117188 L 39.375 23.492188 L 43.910156 26.117188 L 48.445312 23.492188 L 52.980469 26.117188 L 57.609375 23.4375 L 57.609375 18.085938 L 53.074219 15.460938 L 53.074219 10.320312 L 57.609375 7.699219 L 57.609375 2.34375 L 53.074219 -0.277344 L 53.074219 -5.417969 L 57.609375 -8.039062 L 57.609375 -13.394531 L 53.074219 -16.019531 L 53.074219 -21.265625 L 48.492188 -23.914062 L 48.445312 -23.941406 L 43.910156 -21.320312 L 39.417969 -23.914062 L 39.375 -23.941406 L 34.835938 -21.320312 L 30.347656 -23.914062 L 30.300781 -23.941406 L 25.765625 -21.320312 L 21.277344 -23.914062 L 21.230469 -23.941406 L 16.695312 -21.320312 L 12.207031 -23.914062 L 12.160156 -23.941406 L 7.53125 -21.265625 L 7.53125 -15.910156 L 12.066406 -13.285156 L 12.066406 -8.148438 L 7.53125 -5.523438 L 7.53125 -0.171875 L 12.066406 2.453125 L 12.066406 7.589844 Z M 12.160156 -18.480469 L 16.507812 -15.964844 L 12.160156 -13.449219 L 7.8125 -15.964844 Z M 12.253906 -7.933594 L 16.601562 -5.417969 L 16.601562 -0.386719 L 12.253906 -2.902344 Z M 52.886719 -10.769531 L 48.539062 -8.257812 L 48.539062 -13.285156 L 52.886719 -15.800781 Z M 52.886719 4.96875 L 48.539062 7.484375 L 48.539062 2.453125 L 52.886719 -0.0625 Z M 12.253906 7.808594 L 16.601562 10.324219 L 16.601562 15.351562 L 12.253906 12.835938 Z M 16.789062 -0.0625 L 21.136719 2.453125 L 21.136719 7.484375 L 16.789062 4.96875 Z M 48.351562 12.835938 L 44.003906 15.351562 L 44.003906 10.324219 L 48.351562 7.808594 Z M 16.789062 -15.800781 L 21.136719 -13.285156 L 21.136719 -8.257812 L 16.789062 -10.769531 Z M 48.351562 -2.902344 L 44.003906 -0.386719 L 44.003906 -5.417969 L 48.351562 -7.933594 Z M 16.789062 15.351562 L 16.789062 10.324219 L 21.136719 7.808594 L 21.136719 12.835938 Z M 43.816406 4.96875 L 39.464844 7.484375 L 39.464844 2.453125 L 43.816406 -0.0625 Z M 25.859375 -0.0625 L 30.207031 2.453125 L 30.207031 7.484375 L 25.859375 4.96875 Z M 21.324219 -7.933594 L 25.671875 -5.417969 L 25.671875 -0.386719 L 21.324219 -2.902344 Z M 39.375 -2.742188 L 43.722656 -0.226562 L 39.375 2.289062 L 35.023438 -0.226562 Z M 34.746094 -0.0625 L 34.746094 4.96875 L 30.394531 7.484375 L 30.394531 2.453125 Z M 34.835938 5.128906 L 39.1875 7.644531 L 34.835938 10.160156 L 30.488281 7.644531 Z M 34.929688 4.96875 L 34.929688 -0.0625 L 39.28125 2.453125 L 39.28125 7.484375 Z M 30.394531 -7.933594 L 34.746094 -5.417969 L 34.746094 -0.386719 L 30.394531 -2.902344 Z M 30.300781 -2.742188 L 34.652344 -0.226562 L 30.300781 2.289062 L 25.953125 -0.226562 Z M 39.464844 -2.902344 L 39.464844 -7.933594 L 43.816406 -5.417969 L 43.816406 -0.386719 Z M 39.28125 -7.933594 L 39.28125 -2.902344 L 34.929688 -0.386719 L 34.929688 -5.417969 Z M 30.207031 -7.933594 L 30.207031 -2.902344 L 25.859375 -0.386719 L 25.859375 -5.417969 Z M 21.230469 -2.742188 L 25.578125 -0.226562 L 21.230469 2.289062 L 16.882812 -0.226562 Z M 21.136719 -7.933594 L 21.136719 -2.902344 L 16.789062 -0.386719 L 16.789062 -5.417969 Z M 25.765625 5.128906 L 30.117188 7.644531 L 25.765625 10.160156 L 21.417969 7.644531 Z M 21.324219 7.808594 L 25.671875 10.324219 L 25.671875 15.351562 L 21.324219 12.835938 Z M 25.859375 10.324219 L 30.207031 7.808594 L 30.207031 12.835938 L 25.859375 15.351562 Z M 30.394531 7.808594 L 34.746094 10.324219 L 34.746094 15.351562 L 30.394531 12.835938 Z M 34.929688 10.324219 L 39.28125 7.808594 L 39.28125 12.835938 L 34.929688 15.351562 Z M 39.464844 7.808594 L 43.816406 10.324219 L 43.816406 15.351562 L 39.464844 12.835938 Z M 39.558594 7.644531 L 43.910156 5.128906 L 48.257812 7.644531 L 43.910156 10.160156 Z M 44.003906 -15.800781 L 48.351562 -13.285156 L 48.351562 -8.257812 L 44.003906 -10.769531 Z M 43.910156 -10.609375 L 48.257812 -8.09375 L 43.910156 -5.578125 L 39.5625 -8.09375 Z M 34.929688 -15.800781 L 39.28125 -13.285156 L 39.28125 -8.257812 L 34.929688 -10.769531 Z M 34.835938 -10.609375 L 39.1875 -8.09375 L 34.835938 -5.578125 L 30.488281 -8.09375 Z M 25.859375 -15.800781 L 30.207031 -13.285156 L 30.207031 -8.257812 L 25.859375 -10.769531 Z M 25.765625 -10.609375 L 30.113281 -8.09375 L 25.765625 -5.578125 L 21.417969 -8.09375 Z M 21.324219 2.453125 L 25.671875 -0.0625 L 25.671875 4.96875 L 21.324219 7.484375 Z M 16.882812 15.515625 L 21.230469 13 L 25.578125 15.515625 L 21.230469 18.03125 Z M 25.953125 15.515625 L 30.300781 13 L 34.652344 15.515625 L 30.300781 18.03125 Z M 35.023438 15.515625 L 39.375 13 L 43.722656 15.515625 L 39.375 18.03125 Z M 44.003906 4.96875 L 44.003906 -0.0625 L 48.351562 2.453125 L 48.351562 7.484375 Z M 48.445312 2.289062 L 44.09375 -0.226562 L 48.445312 -2.742188 L 52.792969 -0.226562 Z M 43.816406 -15.800781 L 43.816406 -10.769531 L 39.464844 -8.257812 L 39.464844 -13.285156 Z M 34.746094 -15.800781 L 34.746094 -10.769531 L 30.394531 -8.257812 L 30.394531 -13.285156 Z M 25.671875 -15.800781 L 25.671875 -10.769531 L 21.324219 -8.257812 L 21.324219 -13.285156 Z M 16.695312 -10.609375 L 21.042969 -8.09375 L 16.695312 -5.578125 L 12.347656 -8.09375 Z M 48.445312 18.03125 L 44.097656 15.515625 L 48.445312 13 L 52.792969 15.515625 Z M 48.539062 -2.902344 L 48.539062 -7.933594 L 52.886719 -5.417969 L 52.886719 -0.386719 Z M 16.601562 -15.800781 L 16.601562 -10.769531 L 12.253906 -8.257812 L 12.253906 -13.285156 Z M 16.695312 5.128906 L 21.042969 7.644531 L 16.695312 10.160156 L 12.347656 7.644531 Z M 12.160156 13 L 16.507812 15.515625 L 12.160156 18.03125 L 7.8125 15.515625 Z M 16.601562 15.675781 L 16.601562 20.707031 L 12.253906 23.222656 L 12.253906 18.191406 Z M 16.789062 15.675781 L 21.136719 18.191406 L 21.136719 23.222656 L 16.789062 20.707031 Z M 21.324219 18.191406 L 25.671875 15.675781 L 25.671875 20.707031 L 21.324219 23.222656 Z M 25.859375 15.675781 L 30.207031 18.191406 L 30.207031 23.222656 L 25.859375 20.707031 Z M 30.394531 18.191406 L 34.746094 15.675781 L 34.746094 20.707031 L 30.394531 23.222656 Z M 34.929688 15.675781 L 39.28125 18.191406 L 39.28125 23.222656 L 34.929688 20.707031 Z M 39.464844 18.191406 L 43.816406 15.675781 L 43.816406 20.707031 L 39.464844 23.222656 Z M 44.003906 15.675781 L 48.351562 18.191406 L 48.351562 23.222656 L 44.003906 20.707031 Z M 48.539062 18.191406 L 52.886719 15.675781 L 52.886719 20.707031 L 48.539062 23.222656 Z M 52.886719 15.351562 L 48.539062 12.835938 L 48.539062 7.808594 L 52.886719 10.324219 Z M 48.632812 7.644531 L 52.980469 5.128906 L 57.328125 7.644531 L 52.980469 10.160156 Z M 48.632812 -8.09375 L 52.980469 -10.609375 L 57.328125 -8.09375 L 52.980469 -5.578125 Z M 48.445312 -13.449219 L 44.09375 -15.964844 L 48.445312 -18.480469 L 52.792969 -15.964844 Z M 48.351562 -18.640625 L 44.003906 -16.125 L 44.003906 -21.15625 L 48.351562 -23.671875 Z M 39.375 -13.449219 L 35.023438 -15.964844 L 39.375 -18.480469 L 43.722656 -15.964844 Z M 39.28125 -18.640625 L 34.929688 -16.125 L 34.929688 -21.15625 L 39.28125 -23.671875 Z M 30.300781 -13.449219 L 25.953125 -15.964844 L 30.300781 -18.480469 L 34.652344 -15.964844 Z M 30.207031 -18.640625 L 25.859375 -16.125 L 25.859375 -21.15625 L 30.207031 -23.671875 Z M 21.230469 -13.449219 L 16.882812 -15.964844 L 21.230469 -18.480469 L 25.578125 -15.964844 Z M 21.136719 -18.640625 L 16.789062 -16.125 L 16.789062 -21.15625 L 21.136719 -23.671875 Z M 12.160156 -2.738281 L 16.507812 -0.226562 L 12.160156 2.289062 L 7.8125 -0.222656 Z M 16.601562 -0.0625 L 16.601562 4.96875 L 12.253906 7.484375 L 12.253906 2.453125 Z M 12.066406 7.808594 L 12.066406 12.835938 L 7.71875 15.351562 L 7.71875 10.324219 Z M 12.347656 23.382812 L 16.695312 20.871094 L 21.042969 23.386719 L 16.695312 25.898438 Z M 21.417969 23.382812 L 25.765625 20.871094 L 30.117188 23.382812 L 25.765625 25.898438 Z M 30.488281 23.382812 L 34.835938 20.871094 L 39.1875 23.386719 L 34.835938 25.898438 Z M 39.558594 23.382812 L 43.910156 20.871094 L 48.257812 23.382812 L 43.910156 25.898438 Z M 48.632812 23.382812 L 52.980469 20.871094 L 57.328125 23.382812 L 52.980469 25.898438 Z M 57.421875 23.222656 L 53.074219 20.707031 L 53.074219 15.675781 L 57.421875 18.191406 Z M 57.421875 7.484375 L 53.074219 4.96875 L 53.074219 -0.0625 L 57.421875 2.453125 Z M 57.421875 -8.257812 L 53.074219 -10.769531 L 53.074219 -15.800781 L 57.421875 -13.285156 Z M 52.886719 -16.125 L 48.539062 -18.640625 L 48.539062 -23.671875 L 52.886719 -21.15625 Z M 43.816406 -16.125 L 39.464844 -18.640625 L 39.464844 -23.671875 L 43.816406 -21.15625 Z M 34.746094 -16.125 L 30.394531 -18.640625 L 30.394531 -23.671875 L 34.746094 -21.15625 Z M 25.671875 -16.125 L 21.324219 -18.640625 L 21.324219 -23.671875 L 25.671875 -21.15625 Z M 16.601562 -16.125 L 12.253906 -18.640625 L 12.253906 -23.671875 L 16.601562 -21.15625 Z M 12.066406 -23.671875 L 12.066406 -18.640625 L 7.71875 -16.125 L 7.71875 -21.15625 Z M 12.066406 -7.933594 L 12.066406 -2.902344 L 7.71875 -0.386719 L 7.71875 -5.417969 Z M 12.066406 -7.933594 " clip-rule="nonzero"/></clipPath><linearGradient x1="261.483" gradientTransform="matrix(-0.0957565, 0, 0, -0.0959309, 57.608609, 26.116096)" y1="98.232456" x2="261.483" gradientUnits="userSpaceOnUse" y2="0.00000831691" id="3507723ec1"><stop stop-opacity="1" stop-color="rgb(83.106995%, 24.3927%, 41.955566%)" offset="0"/><stop stop-opacity="1" stop-color="rgb(83.177185%, 24.417114%, 41.856384%)" offset="0.015625"/><stop stop-opacity="1" stop-color="rgb(83.319092%, 24.465942%, 41.661072%)" offset="0.03125"/><stop stop-opacity="1" stop-color="rgb(83.460999%, 24.514771%, 41.464233%)" offset="0.046875"/><stop stop-opacity="1" stop-color="rgb(83.602905%, 24.562073%, 41.268921%)" offset="0.0625"/><stop stop-opacity="1" stop-color="rgb(83.744812%, 24.610901%, 41.072083%)" offset="0.078125"/><stop stop-opacity="1" stop-color="rgb(83.886719%, 24.659729%, 40.87677%)" offset="0.09375"/><stop stop-opacity="1" stop-color="rgb(84.030151%, 24.708557%, 40.679932%)" offset="0.109375"/><stop stop-opacity="1" stop-color="rgb(84.172058%, 24.757385%, 40.483093%)" offset="0.125"/><stop stop-opacity="1" stop-color="rgb(84.313965%, 24.806213%, 40.287781%)" offset="0.140625"/><stop stop-opacity="1" stop-color="rgb(84.455872%, 24.853516%, 40.090942%)" offset="0.15625"/><stop stop-opacity="1" stop-color="rgb(84.597778%, 24.902344%, 39.89563%)" offset="0.171875"/><stop stop-opacity="1" stop-color="rgb(84.739685%, 24.951172%, 39.698792%)" offset="0.1875"/><stop stop-opacity="1" stop-color="rgb(84.881592%, 25%, 39.503479%)" offset="0.203125"/><stop stop-opacity="1" stop-color="rgb(85.023499%, 25.048828%, 39.306641%)" offset="0.21875"/><stop stop-opacity="1" stop-color="rgb(85.165405%, 25.09613%, 39.109802%)" offset="0.234375"/><stop stop-opacity="1" stop-color="rgb(85.308838%, 25.144958%, 38.91449%)" offset="0.25"/><stop stop-opacity="1" stop-color="rgb(85.450745%, 25.193787%, 38.717651%)" offset="0.265625"/><stop stop-opacity="1" stop-color="rgb(85.592651%, 25.242615%, 38.522339%)" offset="0.28125"/><stop stop-opacity="1" stop-color="rgb(85.734558%, 25.291443%, 38.3255%)" offset="0.296875"/><stop stop-opacity="1" stop-color="rgb(85.876465%, 25.338745%, 38.130188%)" offset="0.3125"/><stop stop-opacity="1" stop-color="rgb(86.018372%, 25.387573%, 37.93335%)" offset="0.328125"/><stop stop-opacity="1" stop-color="rgb(86.160278%, 25.436401%, 37.736511%)" offset="0.34375"/><stop stop-opacity="1" stop-color="rgb(86.302185%, 25.485229%, 37.541199%)" offset="0.359375"/><stop stop-opacity="1" stop-color="rgb(86.444092%, 25.534058%, 37.34436%)" offset="0.375"/><stop stop-opacity="1" stop-color="rgb(86.585999%, 25.58136%, 37.149048%)" offset="0.390625"/><stop stop-opacity="1" stop-color="rgb(86.729431%, 25.630188%, 36.952209%)" offset="0.40625"/><stop stop-opacity="1" stop-color="rgb(86.871338%, 25.679016%, 36.755371%)" offset="0.421875"/><stop stop-opacity="1" stop-color="rgb(87.013245%, 25.727844%, 36.560059%)" offset="0.4375"/><stop stop-opacity="1" stop-color="rgb(87.155151%, 25.776672%, 36.36322%)" offset="0.453125"/><stop stop-opacity="1" stop-color="rgb(87.297058%, 25.823975%, 36.167908%)" offset="0.46875"/><stop stop-opacity="1" stop-color="rgb(87.438965%, 25.872803%, 35.971069%)" offset="0.484375"/><stop stop-opacity="1" stop-color="rgb(87.580872%, 25.921631%, 35.775757%)" offset="0.5"/><stop stop-opacity="1" stop-color="rgb(87.722778%, 25.970459%, 35.578918%)" offset="0.515625"/><stop stop-opacity="1" stop-color="rgb(87.864685%, 26.019287%, 35.38208%)" offset="0.53125"/><stop stop-opacity="1" stop-color="rgb(88.008118%, 26.066589%, 35.186768%)" offset="0.546875"/><stop stop-opacity="1" stop-color="rgb(88.150024%, 26.115417%, 34.989929%)" offset="0.5625"/><stop stop-opacity="1" stop-color="rgb(88.291931%, 26.164246%, 34.794617%)" offset="0.578125"/><stop stop-opacity="1" stop-color="rgb(88.433838%, 26.213074%, 34.597778%)" offset="0.59375"/><stop stop-opacity="1" stop-color="rgb(88.575745%, 26.261902%, 34.402466%)" offset="0.609375"/><stop stop-opacity="1" stop-color="rgb(88.717651%, 26.31073%, 34.205627%)" offset="0.625"/><stop stop-opacity="1" stop-color="rgb(88.859558%, 26.358032%, 34.008789%)" offset="0.640625"/><stop stop-opacity="1" stop-color="rgb(89.001465%, 26.40686%, 33.813477%)" offset="0.65625"/><stop stop-opacity="1" stop-color="rgb(89.143372%, 26.455688%, 33.616638%)" offset="0.671875"/><stop stop-opacity="1" stop-color="rgb(89.286804%, 26.504517%, 33.421326%)" offset="0.6875"/><stop stop-opacity="1" stop-color="rgb(89.428711%, 26.553345%, 33.224487%)" offset="0.703125"/><stop stop-opacity="1" stop-color="rgb(89.570618%, 26.600647%, 33.027649%)" offset="0.71875"/><stop stop-opacity="1" stop-color="rgb(89.712524%, 26.649475%, 32.832336%)" offset="0.734375"/><stop stop-opacity="1" stop-color="rgb(89.854431%, 26.698303%, 32.635498%)" offset="0.75"/><stop stop-opacity="1" stop-color="rgb(89.996338%, 26.747131%, 32.440186%)" offset="0.765625"/><stop stop-opacity="1" stop-color="rgb(90.138245%, 26.795959%, 32.243347%)" offset="0.78125"/><stop stop-opacity="1" stop-color="rgb(90.280151%, 26.843262%, 32.048035%)" offset="0.796875"/><stop stop-opacity="1" stop-color="rgb(90.422058%, 26.89209%, 31.851196%)" offset="0.8125"/><stop stop-opacity="1" stop-color="rgb(90.565491%, 26.940918%, 31.654358%)" offset="0.828125"/><stop stop-opacity="1" stop-color="rgb(90.707397%, 26.989746%, 31.459045%)" offset="0.84375"/><stop stop-opacity="1" stop-color="rgb(90.849304%, 27.038574%, 31.262207%)" offset="0.859375"/><stop stop-opacity="1" stop-color="rgb(90.991211%, 27.085876%, 31.066895%)" offset="0.875"/><stop stop-opacity="1" stop-color="rgb(91.133118%, 27.134705%, 30.870056%)" offset="0.890625"/><stop stop-opacity="1" stop-color="rgb(91.275024%, 27.183533%, 30.674744%)" offset="0.90625"/><stop stop-opacity="1" stop-color="rgb(91.416931%, 27.232361%, 30.477905%)" offset="0.921875"/><stop stop-opacity="1" stop-color="rgb(91.558838%, 27.281189%, 30.281067%)" offset="0.9375"/><stop stop-opacity="1" stop-color="rgb(91.700745%, 27.328491%, 30.085754%)" offset="0.953125"/><stop stop-opacity="1" stop-color="rgb(91.842651%, 27.377319%, 29.888916%)" offset="0.96875"/><stop stop-opacity="1" stop-color="rgb(91.986084%, 27.426147%, 29.693604%)" offset="0.984375"/><stop stop-opacity="1" stop-color="rgb(92.127991%, 27.474976%, 29.496765%)" offset="1"/></linearGradient><clipPath id="cc0b9bdb06"><path d="M 60.445312 11.539062 L 72.058594 11.539062 L 72.058594 17 L 60.445312 17 Z M 60.445312 11.539062 " clip-rule="nonzero"/></clipPath></defs><g clip-path="url(#87b0117a43)"><g clip-path="url(#8171df9bc4)"><path fill="url(#3948d75748)" d="M 11.472656 1.453125 L 11.472656 10.875 L 61.550781 10.875 L 61.550781 1.453125 Z M 11.472656 1.453125 " fill-rule="nonzero"/></g></g><g clip-path="url(#ae55b7ba6e)"><g clip-path="url(#dc651c6324)"><path fill="url(#3507723ec1)" d="M 57.609375 26.117188 L 57.609375 16.691406 L 7.53125 16.691406 L 7.53125 26.117188 Z M 57.609375 26.117188 " fill-rule="nonzero"/></g></g><g clip-path="url(#cc0b9bdb06)"><path fill="#000000" d="M 49.539062 15.78125 C 46.914062 14.574219 48.027344 12.003906 51.144531 12.082031 C 52.175781 12.105469 52.828125 12.390625 53.382812 13.0625 C 53.800781 13.5625 54.730469 13.726562 54.890625 13.324219 C 55.085938 12.839844 55.789062 12.222656 56.246094 12.136719 C 58 11.804688 59.429688 12.175781 60.023438 13.113281 C 60.347656 13.625 61.179688 13.585938 61.65625 13.035156 C 62.851562 11.644531 66.535156 11.808594 66.5 13.246094 C 66.492188 13.511719 68.171875 13.398438 68.308594 13.121094 C 68.984375 11.753906 71.722656 11.632812 73.003906 12.914062 C 73.625 13.539062 74.28125 13.625 74.566406 13.121094 C 75.457031 11.539062 78.488281 11.539062 79.386719 13.121094 C 79.554688 13.417969 79.613281 13.441406 80.105469 13.402344 C 80.402344 13.382812 80.683594 13.363281 80.730469 13.359375 C 80.777344 13.355469 80.816406 13.292969 80.820312 13.214844 C 80.855469 11.703125 85.234375 11.625 85.832031 13.125 C 86.863281 15.695312 82.160156 17.347656 80.886719 14.863281 C 80.816406 14.726562 80.675781 14.628906 80.570312 14.644531 C 80.46875 14.664062 80.203125 14.679688 79.980469 14.679688 C 79.648438 14.683594 79.523438 14.761719 79.25 15.128906 C 78.347656 16.347656 75.949219 16.335938 74.875 15.113281 C 74.304688 14.460938 73.589844 14.4375 73.242188 15.058594 C 72.425781 16.519531 68.140625 16.253906 68.179688 14.746094 C 68.1875 14.472656 66.660156 14.613281 66.507812 14.898438 C 65.738281 16.328125 62.265625 16.363281 61.652344 14.949219 C 61.515625 14.632812 60.167969 14.515625 60.160156 14.820312 C 60.121094 16.371094 55.398438 16.394531 54.9375 14.84375 C 54.804688 14.398438 53.796875 14.550781 53.445312 15.070312 C 52.859375 15.929688 50.710938 16.324219 49.539062 15.78125 Z M 52.480469 15.566406 C 52.695312 15.484375 52.941406 15.335938 53.03125 15.238281 C 53.257812 14.980469 53.128906 15.007812 52.632812 15.324219 C 52.394531 15.472656 52.070312 15.589844 51.902344 15.585938 C 51.667969 15.578125 51.734375 15.523438 52.234375 15.308594 C 53.046875 14.960938 52.90625 14.746094 52.015625 14.984375 C 50.394531 15.414062 48.652344 14.652344 49.1875 13.75 C 49.609375 13.042969 51.433594 12.726562 52.242188 13.21875 C 52.949219 13.652344 53.511719 13.558594 53.117188 13.070312 C 52.242188 11.992188 49.382812 12.128906 48.621094 13.289062 C 47.589844 14.863281 50.238281 16.425781 52.480469 15.566406 Z M 59.261719 15.488281 C 59.503906 15.320312 59.671875 15.152344 59.640625 15.121094 C 59.609375 15.085938 59.488281 15.140625 59.371094 15.238281 C 59.136719 15.4375 58.386719 15.742188 58.164062 15.734375 C 58.082031 15.730469 58.269531 15.613281 58.582031 15.472656 C 59.550781 15.03125 59.515625 14.753906 58.535156 15.109375 C 57.914062 15.335938 57.132812 15.304688 56.550781 15.039062 C 55.953125 14.757812 55.207031 14.859375 55.464844 15.179688 C 56.019531 15.871094 58.449219 16.066406 59.261719 15.488281 Z M 65 15.664062 C 65.445312 15.554688 65.980469 15.261719 65.992188 15.125 C 65.992188 15.085938 65.753906 15.167969 65.453125 15.308594 C 65.15625 15.449219 64.804688 15.554688 64.675781 15.550781 C 64.519531 15.542969 64.609375 15.472656 64.925781 15.355469 C 65.511719 15.136719 65.804688 14.90625 65.503906 14.898438 C 65.394531 14.898438 65.171875 14.976562 65.011719 15.074219 C 64.589844 15.332031 63.261719 15.296875 62.847656 15.015625 C 62.511719 14.789062 61.890625 14.90625 62.046875 15.167969 C 62.328125 15.636719 63.980469 15.917969 65 15.664062 Z M 72.128906 15.601562 C 72.457031 15.492188 72.789062 15.332031 72.867188 15.242188 C 73.0625 15.019531 72.945312 15.039062 72.492188 15.292969 C 71.988281 15.578125 71.777344 15.5625 72.261719 15.273438 C 72.785156 14.964844 72.625 14.796875 72.058594 15.0625 C 71.363281 15.390625 70.304688 15.363281 69.6875 15 C 68.925781 14.554688 68.402344 14.964844 69.132812 15.433594 C 69.878906 15.914062 71.007812 15.976562 72.128906 15.601562 Z M 77.820312 15.710938 C 78.265625 15.621094 78.605469 15.46875 78.808594 15.273438 L 79.113281 14.972656 L 78.765625 15.195312 C 78.574219 15.316406 78.285156 15.445312 78.128906 15.484375 C 77.875 15.542969 77.882812 15.527344 78.207031 15.335938 C 78.40625 15.21875 78.605469 15.066406 78.648438 15 C 78.773438 14.8125 78.453125 14.851562 78.136719 15.0625 C 77.773438 15.300781 76.546875 15.273438 75.953125 15.011719 C 75.621094 14.863281 75.5 14.855469 75.277344 14.964844 L 75.007812 15.097656 L 75.304688 15.300781 C 76.035156 15.796875 76.804688 15.921875 77.820312 15.710938 Z M 84.382812 15.675781 C 85.691406 15.386719 86.285156 13.839844 85.433594 12.957031 C 84.460938 11.953125 82.34375 11.929688 81.296875 12.90625 C 80.800781 13.367188 81.351562 13.585938 81.933594 13.15625 C 82.78125 12.539062 84.671875 12.714844 85.050781 13.449219 C 85.703125 14.722656 83.585938 15.765625 82.140625 14.882812 C 81.875 14.71875 81.777344 14.707031 81.5 14.824219 L 81.175781 14.960938 L 81.515625 15.242188 C 82.109375 15.738281 83.296875 15.917969 84.382812 15.675781 Z M 83.859375 15.410156 C 84.492188 15.292969 85.128906 14.984375 85.132812 14.796875 C 85.136719 14.742188 85.191406 14.699219 85.253906 14.699219 C 85.46875 14.703125 85.128906 15.148438 84.738281 15.367188 C 84.496094 15.507812 84.175781 15.570312 83.796875 15.554688 L 83.226562 15.53125 Z M 52.050781 14.710938 C 52.121094 14.648438 52.054688 14.578125 51.882812 14.53125 C 51.382812 14.398438 51.457031 13.550781 51.96875 13.5625 C 52.257812 13.570312 52.222656 13.382812 51.917969 13.296875 C 50.453125 12.871094 48.597656 13.8125 49.582031 14.480469 C 50.117188 14.84375 51.746094 14.996094 52.050781 14.710938 Z M 58.609375 14.851562 C 58.824219 14.773438 58.816406 14.757812 58.527344 14.675781 C 57.8125 14.472656 57.777344 13.722656 58.46875 13.46875 L 58.761719 13.359375 L 58.371094 13.1875 C 57.917969 12.984375 56.921875 13.035156 56.574219 13.28125 C 56.367188 13.421875 56.375 13.4375 56.714844 13.566406 C 57.269531 13.773438 57.292969 14.402344 56.75 14.589844 C 56.503906 14.675781 56.476562 14.71875 56.613281 14.804688 C 56.8125 14.9375 58.289062 14.972656 58.609375 14.851562 Z M 64.882812 14.863281 C 65.222656 14.746094 65.316406 14.558594 65.039062 14.550781 C 64.574219 14.539062 64.566406 13.652344 65.027344 13.460938 L 65.289062 13.355469 L 65.007812 13.199219 C 64.648438 13 63.617188 13 63.207031 13.203125 L 62.886719 13.355469 L 63.195312 13.480469 C 63.816406 13.734375 63.609375 14.628906 62.933594 14.613281 C 62.632812 14.605469 62.953125 14.851562 63.382812 14.957031 C 63.8125 15.0625 64.414062 15.023438 64.882812 14.863281 Z M 71.917969 14.816406 C 72.09375 14.679688 72.074219 14.660156 71.726562 14.601562 C 70.996094 14.476562 70.882812 13.65625 71.574219 13.484375 L 71.9375 13.394531 L 71.519531 13.203125 C 71.222656 13.070312 70.9375 13.027344 70.546875 13.070312 C 69.691406 13.160156 69.292969 13.425781 69.808594 13.574219 C 70.261719 13.699219 70.175781 14.5625 69.710938 14.550781 C 69.492188 14.546875 69.628906 14.765625 69.933594 14.902344 C 70.277344 15.058594 71.683594 14.996094 71.917969 14.816406 Z M 77.792969 14.925781 C 78.285156 14.765625 78.367188 14.582031 77.988281 14.480469 C 77.429688 14.328125 77.582031 13.390625 78.164062 13.402344 C 78.660156 13.417969 77.773438 13.042969 77.132812 12.96875 C 76.503906 12.898438 76.375 12.917969 76.082031 13.136719 L 75.75 13.382812 L 76.117188 13.515625 C 76.679688 13.710938 76.761719 14.101562 76.324219 14.480469 L 75.976562 14.785156 L 76.34375 14.910156 C 76.835938 15.078125 77.3125 15.082031 77.792969 14.925781 Z M 56.765625 14.308594 C 57.410156 13.851562 56.898438 13.726562 54.363281 13.730469 C 52.113281 13.734375 51.628906 13.835938 51.878906 14.253906 C 51.980469 14.421875 56.527344 14.476562 56.765625 14.308594 Z M 53.246094 14.148438 C 53.625 14.113281 54.460938 14.089844 55.109375 14.101562 C 55.859375 14.109375 56.28125 14.074219 56.285156 13.996094 C 56.285156 13.929688 56.378906 13.894531 56.488281 13.917969 C 57.460938 14.125 56.542969 14.292969 54.617188 14.253906 C 53.25 14.230469 52.789062 14.195312 53.246094 14.148438 Z M 63.117188 14.25 C 63.917969 13.914062 63.410156 13.78125 61.054688 13.707031 C 58.472656 13.625 57.792969 13.78125 58.308594 14.328125 C 58.433594 14.457031 62.789062 14.386719 63.117188 14.25 Z M 59.832031 14.085938 C 60.371094 14.050781 61.238281 14.027344 61.761719 14.035156 C 62.363281 14.042969 62.6875 14.003906 62.644531 13.933594 C 62.605469 13.867188 62.6875 13.820312 62.820312 13.824219 C 62.992188 13.828125 63.050781 13.886719 63.019531 14.023438 C 62.980469 14.203125 62.78125 14.21875 60.917969 14.183594 C 59.265625 14.152344 59.050781 14.132812 59.832031 14.085938 Z M 84.21875 14.828125 C 84.960938 14.558594 85.160156 13.921875 84.660156 13.40625 C 84.277344 13.015625 83.222656 12.867188 82.585938 13.121094 L 82.136719 13.300781 L 82.453125 13.398438 C 83.304688 13.664062 83.347656 14.636719 82.507812 14.640625 C 82.21875 14.644531 82.21875 14.644531 82.554688 14.808594 C 83.015625 15.027344 83.652344 15.035156 84.21875 14.828125 Z M 69.652344 14.257812 C 69.898438 14.109375 69.902344 14.09375 69.71875 13.875 C 69.351562 13.433594 64.886719 13.59375 64.875 14.050781 C 64.867188 14.421875 69.074219 14.605469 69.652344 14.257812 Z M 67.222656 14.164062 C 67.347656 14.117188 67.8125 14.078125 68.253906 14.078125 C 68.855469 14.078125 69.09375 14.035156 69.203125 13.894531 C 69.382812 13.675781 69.648438 13.867188 69.535156 14.136719 C 69.480469 14.269531 69.214844 14.296875 68.226562 14.273438 C 67.496094 14.257812 67.085938 14.210938 67.222656 14.164062 Z M 76.25 14.257812 C 76.304688 14.210938 76.316406 14.058594 76.277344 13.917969 L 76.203125 13.664062 L 73.925781 13.671875 C 71.519531 13.679688 71.414062 13.695312 71.40625 14.027344 C 71.398438 14.355469 75.894531 14.570312 76.25 14.257812 Z M 74.152344 14.089844 C 74.816406 14.058594 75.398438 14.0625 75.449219 14.09375 C 75.5 14.125 75.613281 14.058594 75.703125 13.945312 C 75.828125 13.792969 75.898438 13.773438 75.996094 13.875 C 76.296875 14.179688 75.960938 14.25 74.460938 14.199219 L 72.949219 14.144531 Z M 82.597656 14.347656 C 82.886719 14.292969 82.953125 13.957031 82.710938 13.75 C 82.382812 13.46875 78.007812 13.636719 77.957031 13.933594 C 77.894531 14.320312 81.167969 14.613281 82.597656 14.347656 Z M 80.058594 14.113281 C 80.097656 14.054688 80.589844 14.027344 81.152344 14.046875 C 81.828125 14.074219 82.234375 14.042969 82.351562 13.953125 C 82.558594 13.792969 82.691406 13.878906 82.597656 14.109375 C 82.542969 14.234375 82.246094 14.265625 81.257812 14.246094 C 80.472656 14.230469 80.015625 14.179688 80.058594 14.113281 Z M 56.367188 13.164062 C 57.011719 12.757812 57.472656 12.726562 58.289062 13.035156 C 59.777344 13.597656 60.375 13.476562 59.425781 12.800781 C 58.164062 11.898438 56.132812 12.101562 55.171875 13.222656 C 54.898438 13.542969 55.839844 13.5 56.367188 13.164062 Z M 62.855469 13.109375 C 63.679688 12.734375 64.570312 12.726562 65.28125 13.085938 C 65.550781 13.222656 65.917969 13.332031 66.101562 13.335938 L 66.4375 13.339844 L 66.027344 12.949219 C 65.0625 12.019531 62.46875 12.066406 61.914062 13.023438 C 61.636719 13.511719 61.914062 13.535156 62.855469 13.109375 Z M 69.417969 13.199219 C 69.90625 12.691406 71.300781 12.667969 72.089844 13.148438 C 72.449219 13.371094 73.023438 13.472656 73.027344 13.320312 C 73.039062 12.898438 71.574219 12.234375 70.589844 12.210938 C 69.816406 12.191406 68.570312 12.84375 68.558594 13.273438 C 68.554688 13.484375 69.195312 13.425781 69.417969 13.199219 Z M 75.527344 13.21875 C 75.972656 12.5625 77.789062 12.539062 78.359375 13.183594 C 78.550781 13.402344 79.207031 13.523438 79.210938 13.34375 C 79.230469 12.554688 76.773438 11.867188 75.726562 12.367188 C 75.359375 12.542969 74.75 13.140625 74.746094 13.332031 C 74.738281 13.539062 75.375 13.449219 75.527344 13.21875 Z M 75.527344 13.21875 " fill-opacity="1" fill-rule="nonzero"/></g><g fill="#0e0e11" fill-opacity="1"><g transform="translate(7.127346, 19.077795)"><g><path d="M 4.625 -10.6875 C 5.195312 -10.6875 5.753906 -10.601562 6.296875 -10.4375 C 6.835938 -10.269531 7.238281 -10.109375 7.5 -9.953125 L 7.890625 -9.6875 L 6.921875 -7.78125 C 6.835938 -7.832031 6.726562 -7.898438 6.59375 -7.984375 C 6.457031 -8.066406 6.203125 -8.175781 5.828125 -8.3125 C 5.460938 -8.445312 5.117188 -8.515625 4.796875 -8.515625 C 4.398438 -8.515625 4.09375 -8.425781 3.875 -8.25 C 3.65625 -8.082031 3.546875 -7.851562 3.546875 -7.5625 C 3.546875 -7.414062 3.597656 -7.28125 3.703125 -7.15625 C 3.804688 -7.039062 3.976562 -6.910156 4.21875 -6.765625 C 4.46875 -6.628906 4.6875 -6.519531 4.875 -6.4375 C 5.0625 -6.351562 5.347656 -6.222656 5.734375 -6.046875 C 6.410156 -5.765625 6.988281 -5.375 7.46875 -4.875 C 7.945312 -4.382812 8.1875 -3.820312 8.1875 -3.1875 C 8.1875 -2.59375 8.078125 -2.066406 7.859375 -1.609375 C 7.648438 -1.160156 7.351562 -0.804688 6.96875 -0.546875 C 6.59375 -0.296875 6.175781 -0.113281 5.71875 0 C 5.257812 0.125 4.765625 0.1875 4.234375 0.1875 C 3.773438 0.1875 3.320312 0.140625 2.875 0.046875 C 2.4375 -0.046875 2.066406 -0.160156 1.765625 -0.296875 C 1.472656 -0.441406 1.207031 -0.582031 0.96875 -0.71875 C 0.738281 -0.851562 0.566406 -0.96875 0.453125 -1.0625 L 0.296875 -1.203125 L 1.484375 -3.203125 C 1.585938 -3.117188 1.726562 -3.007812 1.90625 -2.875 C 2.082031 -2.75 2.394531 -2.570312 2.84375 -2.34375 C 3.300781 -2.125 3.707031 -2.015625 4.0625 -2.015625 C 5.070312 -2.015625 5.578125 -2.359375 5.578125 -3.046875 C 5.578125 -3.191406 5.539062 -3.328125 5.46875 -3.453125 C 5.394531 -3.578125 5.265625 -3.695312 5.078125 -3.8125 C 4.898438 -3.9375 4.738281 -4.035156 4.59375 -4.109375 C 4.457031 -4.179688 4.226562 -4.289062 3.90625 -4.4375 C 3.59375 -4.59375 3.359375 -4.707031 3.203125 -4.78125 C 2.566406 -5.09375 2.070312 -5.484375 1.71875 -5.953125 C 1.375 -6.429688 1.203125 -6.941406 1.203125 -7.484375 C 1.203125 -8.421875 1.550781 -9.1875 2.25 -9.78125 C 2.945312 -10.382812 3.738281 -10.6875 4.625 -10.6875 Z M 4.625 -10.6875 "/></g></g></g><g fill="#0e0e11" fill-opacity="1"><g transform="translate(15.672517, 19.077795)"><g><path d="M 0.109375 -8.390625 L 0.109375 -10.5 L 7.484375 -10.5 L 7.484375 -8.390625 L 4.984375 -8.390625 L 4.984375 0 L 2.59375 0 L 2.59375 -8.390625 Z M 0.109375 -8.390625 "/></g></g></g><g fill="#0e0e11" fill-opacity="1"><g transform="translate(23.251266, 19.077795)"><g><path d="M 0.765625 -10.5 L 4.515625 -10.5 C 5.523438 -10.5 6.347656 -10.226562 6.984375 -9.6875 C 7.617188 -9.144531 7.9375 -8.375 7.9375 -7.375 C 7.9375 -6.601562 7.742188 -5.957031 7.359375 -5.4375 C 6.972656 -4.914062 6.445312 -4.550781 5.78125 -4.34375 L 9.40625 0 L 6.359375 0 L 3.15625 -4.140625 L 3.15625 0 L 0.765625 0 Z M 3.15625 -5.84375 L 3.4375 -5.84375 C 3.65625 -5.84375 3.835938 -5.84375 3.984375 -5.84375 C 4.140625 -5.851562 4.316406 -5.882812 4.515625 -5.9375 C 4.710938 -5.988281 4.867188 -6.0625 4.984375 -6.15625 C 5.097656 -6.25 5.195312 -6.382812 5.28125 -6.5625 C 5.375 -6.738281 5.421875 -6.953125 5.421875 -7.203125 C 5.421875 -7.460938 5.375 -7.679688 5.28125 -7.859375 C 5.195312 -8.035156 5.097656 -8.171875 4.984375 -8.265625 C 4.867188 -8.359375 4.710938 -8.429688 4.515625 -8.484375 C 4.316406 -8.535156 4.140625 -8.5625 3.984375 -8.5625 C 3.835938 -8.570312 3.65625 -8.578125 3.4375 -8.578125 L 3.15625 -8.578125 Z M 3.15625 -5.84375 "/></g></g></g><g fill="#0e0e11" fill-opacity="1"><g transform="translate(32.355936, 19.077795)"><g><path d="M 6.765625 -10.5 L 6.765625 -8.390625 L 3.15625 -8.390625 L 3.15625 -6.3125 L 6.609375 -6.3125 L 6.609375 -4.203125 L 3.15625 -4.203125 L 3.15625 -2.09375 L 6.765625 -2.09375 L 6.765625 0 L 0.765625 0 L 0.765625 -10.5 Z M 6.765625 -10.5 "/></g></g></g><g fill="#0e0e11" fill-opacity="1"><g transform="translate(39.731226, 19.077795)"><g><path d="M 6.09375 -10.5 L 10.328125 0 L 7.765625 0 L 6.984375 -2.09375 L 2.984375 -2.09375 L 2.21875 0 L -0.359375 0 L 3.875 -10.5 Z M 6.171875 -4.203125 L 5 -7.25 L 4.96875 -7.25 L 3.796875 -4.203125 Z M 6.171875 -4.203125 "/></g></g></g><g fill="#0e0e11" fill-opacity="1"><g transform="translate(49.70059, 19.077795)"><g><path d="M 9.4375 0 L 8.9375 -6.21875 L 8.875 -6.21875 L 6.734375 -0.0625 L 5.296875 -0.0625 L 3.15625 -6.21875 L 3.09375 -6.21875 L 2.59375 0 L 0.203125 0 L 1.140625 -10.5 L 3.6875 -10.5 L 6.015625 -4.4375 L 8.34375 -10.5 L 10.890625 -10.5 L 11.828125 0 Z M 9.4375 0 "/></g></g></g><g fill="#000000" fill-opacity="1"><g transform="translate(70.390488, 17.740455)"><g><path d="M 4 -1.359375 C 4.238281 -1.359375 4.460938 -1.394531 4.671875 -1.46875 C 4.890625 -1.539062 5.050781 -1.609375 5.15625 -1.671875 L 5.3125 -1.78125 L 5.953125 -0.484375 C 5.929688 -0.472656 5.898438 -0.453125 5.859375 -0.421875 C 5.828125 -0.398438 5.738281 -0.351562 5.59375 -0.28125 C 5.457031 -0.207031 5.3125 -0.144531 5.15625 -0.09375 C 5.007812 -0.0390625 4.804688 0.00390625 4.546875 0.046875 C 4.296875 0.0976562 4.039062 0.125 3.78125 0.125 C 3.15625 0.125 2.566406 -0.0234375 2.015625 -0.328125 C 1.472656 -0.628906 1.03125 -1.046875 0.6875 -1.578125 C 0.351562 -2.109375 0.1875 -2.679688 0.1875 -3.296875 C 0.1875 -3.765625 0.285156 -4.210938 0.484375 -4.640625 C 0.679688 -5.066406 0.941406 -5.429688 1.265625 -5.734375 C 1.597656 -6.046875 1.984375 -6.289062 2.421875 -6.46875 C 2.859375 -6.65625 3.3125 -6.75 3.78125 -6.75 C 4.207031 -6.75 4.597656 -6.695312 4.953125 -6.59375 C 5.316406 -6.488281 5.570312 -6.382812 5.71875 -6.28125 L 5.953125 -6.140625 L 5.3125 -4.84375 C 5.269531 -4.882812 5.210938 -4.925781 5.140625 -4.96875 C 5.066406 -5.007812 4.914062 -5.066406 4.6875 -5.140625 C 4.46875 -5.222656 4.238281 -5.265625 4 -5.265625 C 3.644531 -5.265625 3.320312 -5.203125 3.03125 -5.078125 C 2.738281 -4.960938 2.507812 -4.804688 2.34375 -4.609375 C 2.175781 -4.421875 2.046875 -4.210938 1.953125 -3.984375 C 1.867188 -3.765625 1.828125 -3.539062 1.828125 -3.3125 C 1.828125 -2.8125 2.015625 -2.359375 2.390625 -1.953125 C 2.765625 -1.554688 3.300781 -1.359375 4 -1.359375 Z M 4 -1.359375 "/></g></g></g><g fill="#000000" fill-opacity="1"><g transform="translate(77.241831, 17.740455)"><g><path d="M 1.984375 -2.65625 L 1.984375 0 L 0.484375 0 L 0.484375 -6.625 L 1.984375 -6.625 L 1.984375 -3.984375 L 4.125 -3.984375 L 4.125 -6.625 L 5.640625 -6.625 L 5.640625 0 L 4.125 0 L 4.125 -2.65625 Z M 1.984375 -2.65625 "/></g></g></g><g fill="#000000" fill-opacity="1"><g transform="translate(84.165462, 17.740455)"><g><path d="M 3.84375 -6.625 L 6.515625 0 L 4.90625 0 L 4.40625 -1.328125 L 1.890625 -1.328125 L 1.390625 0 L -0.21875 0 L 2.453125 -6.625 Z M 3.890625 -2.65625 L 3.15625 -4.578125 L 3.140625 -4.578125 L 2.40625 -2.65625 Z M 3.890625 -2.65625 "/></g></g></g><g fill="#000000" fill-opacity="1"><g transform="translate(91.2658, 17.740455)"><g><path d="M 1.984375 -6.625 L 1.984375 0 L 0.484375 0 L 0.484375 -6.625 Z M 1.984375 -6.625 "/></g></g></g><g fill="#000000" fill-opacity="1"><g transform="translate(94.542879, 17.740455)"><g><path d="M 1.984375 -4.109375 L 1.984375 0 L 0.484375 0 L 0.484375 -6.625 L 1.984375 -6.625 L 4.625 -2.515625 L 4.640625 -2.515625 L 4.640625 -6.625 L 6.15625 -6.625 L 6.15625 0 L 4.640625 0 L 2.015625 -4.109375 Z M 1.984375 -4.109375 "/></g></g></g></svg>